<svg version="1.1" xmlns="http://www.w3.org/2000/svg" style="display: block;" viewBox="0 0 2048 2048" width="1024" height="1024" preserveAspectRatio="none">
<path transform="translate(0,0)" fill="rgb(0,0,0)" d="M 311.276 0 L 1735.91 0 L 1736.81 0.175884 C 1759.62 4.46653 1776.13 3.9518 1801.03 10.6614 C 1879.03 31.6782 1944.2 77.546 1989.82 143.614 C 2015.52 180.512 2033.22 222.377 2041.79 266.521 C 2044.08 278.444 2045.39 300.269 2048 309.423 L 2048 1737.71 L 2047.83 1738.56 C 2043.61 1760.45 2044.2 1774.92 2038.05 1799.47 C 2017.89 1877.6 1969.91 1945.68 1903.12 1990.94 C 1866.88 2015.96 1825.84 2033.2 1782.6 2041.57 C 1768.04 2044.29 1750.83 2045.19 1737.61 2048 L 313.339 2048 C 304.893 2045.68 279.227 2043.74 267.333 2041.56 C 222.835 2033.28 180.605 2015.64 143.443 1989.81 C 70.042 1938.5 14.1813 1854.98 3.88683 1765.05 C 2.81691 1755.71 2.04406 1744.74 0.378406 1735.64 L 0 1733.63 L 0 314.19 C 1.76285 307.78 4.38312 278.227 6.28853 267.54 C 14.9092 221.575 33.4295 178.036 60.564 139.946 C 106.532 75.2509 174.029 29.0322 250.968 9.56714 C 275.178 3.58821 287.966 4.23328 309.298 0.373881 L 311.276 0 z M 1722.33 1961.74 C 1797.75 1955.15 1856.05 1929.7 1905.52 1870.37 C 1935.16 1834.37 1953.93 1790.68 1959.65 1744.4 C 1961.94 1725.23 1961.06 1696.24 1961.03 1675.94 L 1961 1559.5 L 1960.96 1094.25 L 1961 566.074 L 1961.03 405.683 C 1961.13 373.605 1963.3 341.08 1960.19 309.237 C 1953.4 243.715 1920.8 183.595 1869.58 142.163 C 1833.93 112.969 1790.85 94.2941 1745.17 88.235 C 1721.7 85.181 1695.26 86.0198 1671.36 86.031 L 1570.45 86.0928 L 1225.35 86.0833 L 631.109 86.0853 L 435.713 86.0867 C 401.734 86.0901 361.829 85.1664 328.279 86.5505 C 261.979 88.3368 199.125 116.479 153.636 164.745 C 118.668 202.375 95.9988 249.769 88.6491 300.609 C 85.2758 323.595 86.0438 349.392 86.0433 372.829 L 86.0608 465.661 L 86.1053 790.546 L 86.1277 1401.26 L 86.0961 1597.54 C 86.0577 1635.84 86.0435 1673.81 86.453 1712.12 C 87.2114 1783.09 113.694 1847.21 166.536 1896.02 C 202.739 1929.44 248.161 1951.19 296.894 1958.44 C 326.539 1962.76 364.351 1961.67 394.642 1961.13 C 415.119 1960.96 435.596 1960.9 456.073 1960.98 L 770.908 1960.99 L 1485.21 1961.01 L 1626.96 1961.03 C 1659.09 1961.33 1689.81 1962.36 1722.33 1961.74 z"/>
<path transform="translate(0,0)" fill="rgb(0,0,0)" d="M 1014.79 374.338 C 1018.15 374.085 1021.69 373.822 1025.05 373.873 C 1037.5 374.14 1049.57 378.198 1059.65 385.505 C 1070.42 393.187 1084.96 408.77 1094.94 418.418 L 1162.53 484.176 C 1188.84 509.96 1215.34 535.553 1242.02 560.954 C 1259.91 577.938 1278.84 595.16 1296.05 612.7 C 1295.84 586.166 1295.79 559.631 1295.89 533.096 C 1295.92 519.235 1295.58 504.296 1296.57 490.548 C 1296.87 486.47 1298.56 479.677 1301.56 476.728 C 1309.29 469.113 1315.92 468.895 1325.89 468.882 C 1352.86 468.847 1379.46 468.715 1406.43 468.84 C 1420.4 469.253 1435.1 467.955 1448.9 469.926 C 1455.93 470.929 1465.04 480.561 1465.47 487.667 C 1466.09 497.98 1465.97 508.363 1466 518.666 L 1466.12 575.678 L 1465.9 775.476 C 1528.69 837.755 1593.91 898.781 1657.71 960.071 C 1672 973.794 1679.07 987.288 1679.01 1007.56 C 1678.97 1024.34 1672.06 1040.38 1659.89 1051.94 C 1647.28 1064.15 1631.62 1069.98 1614.19 1069.28 C 1590.73 1068.33 1579.89 1057.99 1565 1042.37 C 1563.69 990.03 1566.06 948.813 1523.61 909.75 C 1487.1 876.16 1441.25 876.66 1394.93 879.017 C 1387.48 873.852 1366.99 853.164 1359.58 846.059 L 1284.28 773.822 C 1209.9 702.076 1133.14 630.577 1059.64 558.207 C 1048.7 548.878 1034.79 534.811 1023.99 524.691 C 1012.9 533.547 991.515 555.508 980.143 566.409 L 892.801 649.805 L 586.646 943.561 L 509.962 1016.9 C 496.259 1030.09 480.037 1047.37 465.234 1058.48 C 426.657 1087.44 368.409 1055.41 368.898 1007.81 C 369.091 989.022 375.463 974.422 389.553 961.491 C 411.09 939.97 433.353 919.532 455.377 898.615 L 560.633 797.056 C 583.933 774.602 608.471 752.04 631.17 729.09 C 631.001 719.833 630.969 710.401 631.074 701.084 C 631.751 641.337 629.523 581.218 631.982 521.579 C 632.219 515.837 637.646 512.227 641.854 509.236 C 643.033 509.03 644.213 508.819 645.402 508.677 C 664.254 506.427 684.968 507.971 704.03 507.962 C 720.351 507.954 738.662 506.269 754.715 508.621 C 759.168 509.274 765.252 510.549 768.673 513.724 C 774.274 518.922 772.559 579.74 772.97 592.382 C 792.685 574.378 813.824 553.052 833.134 534.339 L 926.336 444.594 L 961.78 410.148 C 978.387 393.97 991.016 378.968 1014.79 374.338 z"/>
<path transform="translate(0,0)" fill="rgb(0,0,0)" d="M 1022.95 586.485 C 1028.26 587.951 1077.26 636.785 1084.79 643.865 C 1134.38 690.337 1183.65 737.148 1232.59 784.297 L 1297.17 845.671 C 1307.43 855.406 1322.15 868.68 1331.39 878.892 C 1306.89 879.292 1279.9 878.132 1254.91 878.109 L 1042.2 878.075 C 1014.77 877.927 987.35 878.019 959.929 878.353 C 946.88 878.621 927.772 878.704 915.353 881.073 C 896.213 884.724 875.826 894.154 860.979 906.928 C 832.79 931.18 819.282 966.226 816.346 1002.69 C 814.779 1019.93 817.295 1034.64 829.122 1048.04 C 846.687 1067.95 872.44 1064.12 896.06 1064.4 C 916.743 1064.64 937.318 1063.99 957.89 1064.83 C 958.059 1088 958.086 1111.17 957.97 1134.34 C 944.422 1123.95 933.892 1116.97 917.977 1110.27 C 874.571 1091.79 825.541 1091.61 782.002 1109.78 C 740.016 1127.26 702.836 1163.38 685.57 1205.58 C 667.318 1249.54 667.383 1298.98 685.749 1342.9 C 705.542 1389.66 740.185 1421.58 786.781 1440.46 C 797.655 1445.66 820.912 1450.05 832.726 1451.19 C 877.832 1455.61 922.872 1442.15 958.153 1413.7 C 958.052 1468.42 957.488 1524.09 958.185 1578.73 C 897.218 1580.27 835.265 1578.27 774.189 1578.85 C 719.292 1579.37 664.202 1578.41 609.301 1578.95 C 587.697 1579.16 567.964 1572.4 553.132 1556.39 C 526.884 1529.95 531.519 1496.59 531.524 1461.97 L 531.552 1366.91 C 531.512 1264.63 529.905 1157.39 532.007 1055.45 L 883.248 718.804 L 979.495 626.983 C 993.199 614.055 1008.79 598.639 1022.95 586.485 z"/>
<path transform="translate(0,0)" fill="rgb(0,0,0)" d="M 928.968 911.287 C 930.517 911.142 931.711 911.081 933.284 911.077 C 1052.47 910.831 1171.74 910.921 1290.92 910.945 L 1396.83 910.881 C 1434.66 910.864 1473.58 905.83 1503.04 934.883 C 1517.37 948.988 1527 967.167 1530.62 986.943 C 1533.03 1000.49 1532.16 1031.5 1532.14 1046.71 L 1532.08 1150.8 C 1532.06 1285.65 1530.7 1422.94 1532.28 1557.6 C 1575.29 1555.52 1621.67 1557.58 1664.9 1557.53 C 1678.63 1557.52 1678.69 1572.29 1678.86 1582.06 C 1679.41 1614.07 1664.89 1643.43 1637.98 1661.14 C 1611.68 1678.75 1577.67 1674.13 1547.02 1674.09 L 1432.29 1674.07 L 1197.79 1674.16 C 1159.72 1674.18 1121.59 1674.37 1083.49 1674.28 C 1056.27 1674.55 1033.93 1665.4 1014.95 1645.49 C 982.078 1610.58 991.473 1555.48 990.893 1510.51 C 990.314 1465.76 989.776 1417.21 990.973 1372.32 C 1000.94 1372.31 1010.68 1372.75 1020.63 1373.17 C 1019.68 1383.19 1020.13 1399.88 1020.13 1410.39 L 1020.2 1475.5 C 1020.36 1510.77 1019.47 1547.08 1020.76 1582.29 C 1021.43 1600.45 1028.26 1617.08 1042.44 1629.08 C 1055.42 1639.89 1072.17 1645.1 1088.99 1643.56 C 1115.63 1640.93 1134.69 1621.57 1140.45 1596.24 C 1143.41 1583.23 1138.05 1558.71 1157.48 1557.7 C 1168.02 1557.15 1179.85 1557.74 1190.55 1557.79 L 1260.89 1557.94 L 1502.23 1557.01 C 1502.33 1554.34 1502.4 1551.67 1502.42 1549 L 1502.54 1172.53 L 1502.48 1061 C 1502.45 1027.37 1508.23 983.097 1482.41 957.846 C 1474.03 949.553 1463.18 944.223 1451.5 942.668 C 1441.08 941.24 1414.87 942.013 1402.86 942.051 L 1311.47 942.184 L 998.567 941.98 C 1025.55 980.933 1019.82 997.648 1020.32 1042.49 C 1021.19 1087.03 1021.41 1131.58 1021 1176.13 C 1011 1176.23 1000.99 1176.21 990.984 1176.07 C 989.852 1129.67 990.614 1078.4 990.983 1031.79 C 956.543 1030.46 921.752 1031.72 887.277 1031.55 C 874.83 1031.16 849.303 1035.81 848.571 1016.78 C 846.523 963.512 875.654 919.901 928.968 911.287 z"/>
<path transform="translate(0,0)" fill="rgb(0,0,0)" d="M 836.559 1129.37 C 849.061 1127.32 874.803 1130.4 886.995 1133.89 C 929.555 1146.07 956.445 1171.79 977.932 1208.96 L 1185.5 1209.01 C 1229.77 1209.3 1272.21 1210.51 1316.86 1209.43 C 1318.78 1210.47 1320.63 1211.65 1322.37 1212.95 C 1333.15 1221.14 1342.58 1232.97 1352.01 1242.42 C 1372.38 1262.84 1388.95 1269.84 1361.37 1295.28 C 1346.74 1308.78 1332.65 1325.92 1317.12 1339.03 C 1289.41 1340.55 1245.94 1339.81 1217.75 1339.16 C 1207.1 1328.7 1196.66 1318.03 1186.44 1307.14 L 1159.59 1333.84 C 1144.18 1348.92 1130.63 1325.77 1119.63 1316.18 C 1116.32 1313.29 1113.05 1309.81 1109.84 1306.76 C 1100.69 1316.57 1087.22 1330.32 1077.18 1338.92 C 1052.92 1341.48 1004.33 1339.46 977.712 1340 C 973.843 1347.19 969.437 1354.08 964.532 1360.6 C 914.748 1426.88 824.608 1438.45 759.312 1387.52 C 728.966 1363.74 709.446 1328.77 705.136 1290.46 C 700.909 1251.66 712.333 1212.78 736.878 1182.43 C 762.181 1150.8 796.841 1133.97 836.559 1129.37 z M 798.469 1311.27 C 819.248 1307.74 833.164 1287.95 829.454 1267.2 C 825.745 1246.46 805.832 1232.71 785.117 1236.6 C 764.655 1240.44 751.114 1260.06 754.779 1280.56 C 758.443 1301.05 777.943 1314.76 798.469 1311.27 z"/>
</svg>